<mxfile host="app.diagrams.net" modified="2021-04-19T01:39:08.319Z" agent="5.0 (Windows NT 10.0; Win64; x64) AppleWebKit/537.36 (KHTML, like Gecko) Chrome/89.0.4389.128 Safari/537.36" etag="Mg5cpV5QRbshQ5nw-WRz" version="14.6.1" type="github">
  <diagram id="msBns1qqR1EzNI2stvdH" name="Page-1">
    <mxGraphModel dx="1422" dy="762" grid="1" gridSize="10" guides="1" tooltips="1" connect="1" arrows="1" fold="1" page="1" pageScale="1" pageWidth="827" pageHeight="1169" math="0" shadow="0">
      <root>
        <mxCell id="0" />
        <mxCell id="1" parent="0" />
        <mxCell id="xaynoLkKG6jmUJ72s8oF-2" value="整理result" style="rounded=0;whiteSpace=wrap;html=1;shadow=0;strokeWidth=1;strokeColor=none;" parent="1" vertex="1">
          <mxGeometry x="320" y="150" width="60" height="20" as="geometry" />
        </mxCell>
        <mxCell id="xaynoLkKG6jmUJ72s8oF-1" value="論文" style="rounded=0;whiteSpace=wrap;html=1;" parent="1" vertex="1">
          <mxGeometry x="330" y="130" width="40" height="20" as="geometry" />
        </mxCell>
        <mxCell id="xaynoLkKG6jmUJ72s8oF-3" value="UNet" style="rounded=0;whiteSpace=wrap;html=1;shadow=0;strokeWidth=1;strokeColor=none;" parent="1" vertex="1">
          <mxGeometry x="320" y="170" width="60" height="20" as="geometry" />
        </mxCell>
        <mxCell id="xaynoLkKG6jmUJ72s8oF-4" value="grad loss" style="rounded=0;whiteSpace=wrap;html=1;shadow=0;strokeWidth=1;strokeColor=none;" parent="1" vertex="1">
          <mxGeometry x="320" y="190" width="60" height="20" as="geometry" />
        </mxCell>
        <mxCell id="xaynoLkKG6jmUJ72s8oF-5" value="整理 related work" style="rounded=0;whiteSpace=wrap;html=1;shadow=0;strokeWidth=1;strokeColor=none;" parent="1" vertex="1">
          <mxGeometry x="295" y="210" width="110" height="20" as="geometry" />
        </mxCell>
        <mxCell id="xaynoLkKG6jmUJ72s8oF-6" value="視覺化" style="rounded=0;whiteSpace=wrap;html=1;shadow=0;strokeWidth=1;strokeColor=none;" parent="1" vertex="1">
          <mxGeometry x="295" y="230" width="110" height="20" as="geometry" />
        </mxCell>
        <mxCell id="xaynoLkKG6jmUJ72s8oF-7" value="bm/uv 生成過程" style="rounded=0;whiteSpace=wrap;html=1;shadow=0;strokeWidth=1;strokeColor=none;" parent="1" vertex="1">
          <mxGeometry x="295" y="250" width="110" height="20" as="geometry" />
        </mxCell>
        <mxCell id="xaynoLkKG6jmUJ72s8oF-8" value="tensorboard" style="rounded=0;whiteSpace=wrap;html=1;shadow=0;strokeWidth=1;strokeColor=none;" parent="1" vertex="1">
          <mxGeometry x="295" y="270" width="110" height="20" as="geometry" />
        </mxCell>
        <mxCell id="xaynoLkKG6jmUJ72s8oF-10" value="用working 2 分析wc是什麼" style="rounded=0;whiteSpace=wrap;html=1;shadow=0;strokeWidth=1;strokeColor=none;" parent="1" vertex="1">
          <mxGeometry x="277.5" y="290" width="145" height="20" as="geometry" />
        </mxCell>
      </root>
    </mxGraphModel>
  </diagram>
</mxfile>
